<?xml version="1.0" encoding="UTF-8" standalone="no"?>
<!-- Created with Inkscape (http://www.inkscape.org/) -->

<svg
   width="20mm"
   height="20mm"
   viewBox="0 0 20 20"
   version="1.1"
   id="svg1"
   inkscape:version="1.4.2 (ebf0e940d0, 2025-05-08)"
   sodipodi:docname="settings.svg"
   xmlns:inkscape="http://www.inkscape.org/namespaces/inkscape"
   xmlns:sodipodi="http://sodipodi.sourceforge.net/DTD/sodipodi-0.dtd"
   xmlns="http://www.w3.org/2000/svg"
   xmlns:svg="http://www.w3.org/2000/svg">
  <sodipodi:namedview
     id="namedview1"
     pagecolor="#ffffff"
     bordercolor="#000000"
     borderopacity="0.25"
     inkscape:showpageshadow="2"
     inkscape:pageopacity="0.0"
     inkscape:pagecheckerboard="0"
     inkscape:deskcolor="#d1d1d1"
     inkscape:document-units="mm"
     showguides="false"
     inkscape:zoom="12.663553"
     inkscape:cx="36.166786"
     inkscape:cy="36.838003"
     inkscape:current-layer="layer2">
    <sodipodi:guide
       position="9.9999997,9.9999997"
       orientation="-1,0"
       id="guide5"
       inkscape:locked="false"
       inkscape:label=""
       inkscape:color="rgb(0,134,229)" />
    <sodipodi:guide
       position="9.9999997,9.9999997"
       orientation="0,1"
       id="guide6"
       inkscape:locked="false"
       inkscape:label=""
       inkscape:color="rgb(0,134,229)" />
    <sodipodi:guide
       position="9.9999997,9.9999997"
       orientation="0.5,-0.8660254"
       id="guide1"
       inkscape:locked="false"
       inkscape:label=""
       inkscape:color="rgb(0,134,229)" />
    <sodipodi:guide
       position="9.9999997,9.9999997"
       orientation="0.96592583,-0.25881905"
       id="guide2"
       inkscape:locked="false"
       inkscape:label=""
       inkscape:color="rgb(0,134,229)" />
    <sodipodi:guide
       position="9.9999997,9.9999997"
       orientation="0.70710678,-0.70710678"
       id="guide3"
       inkscape:locked="false"
       inkscape:label=""
       inkscape:color="rgb(0,134,229)" />
  </sodipodi:namedview>
  <defs
     id="defs1" />
  <g
     inkscape:label="Layer 1"
     inkscape:groupmode="layer"
     id="layer1"
     style="display:none">
    <circle
       style="fill:none;stroke:#000000;stroke-width:0.2;stroke-linecap:round;stroke-linejoin:round"
       id="circle1"
       cx="10"
       cy="10"
       r="3" />
    <path
       style="display:none;fill:none;stroke:#000000;stroke-width:0.2;stroke-linecap:round;stroke-linejoin:round;stroke-dasharray:none"
       d="m 10,5 h 5.213884"
       id="path5" />
    <g
       id="g6">
      <path
         style="display:inline;fill:none;stroke:#000000;stroke-width:0.2;stroke-linecap:round;stroke-linejoin:round"
         id="path1"
         sodipodi:type="arc"
         sodipodi:cx="10"
         sodipodi:cy="10"
         sodipodi:rx="7"
         sodipodi:ry="7"
         sodipodi:start="4.4505896"
         sodipodi:end="4.9741884"
         sodipodi:arc-type="arc"
         d="m 8.1882667,3.2385192 a 7,7 0 0 1 3.6234673,1e-7"
         sodipodi:open="true" />
      <path
         style="display:inline;fill:none;stroke:#000000;stroke-width:0.2;stroke-linecap:round;stroke-linejoin:round"
         id="circle2"
         sodipodi:type="arc"
         sodipodi:cx="10"
         sodipodi:cy="10"
         sodipodi:rx="5"
         sodipodi:ry="5"
         sodipodi:start="4.9741884"
         sodipodi:end="5.4977871"
         sodipodi:arc-type="arc"
         d="m 11.294095,5.1703709 a 5,5 0 0 1 2.241439,1.294095"
         sodipodi:open="true" />
      <path
         style="fill:none;stroke:#000000;stroke-width:0.2;stroke-linecap:round;stroke-linejoin:round;stroke-dasharray:none"
         d="M 11.294095,5.1703709 11.811733,3.2385192"
         id="path4"
         inkscape:transform-center-y="-5.795555"
         inkscape:transform-center-x="-1.552914" />
      <path
         style="display:inline;fill:none;stroke:#000000;stroke-width:0.2;stroke-linecap:round;stroke-linejoin:round;stroke-dasharray:none"
         d="M 13.535534,6.464466 14.949747,5.0502524"
         id="path6"
         inkscape:transform-center-y="-4.2426408"
         inkscape:transform-center-x="-4.2426405" />
    </g>
  </g>
  <g
     inkscape:groupmode="layer"
     id="layer2"
     inkscape:label="Layer 2"
     style="stroke-width:0.5;stroke-dasharray:none">
    <circle
       style="fill:none;stroke:#000000;stroke-width:0.5;stroke-linecap:round;stroke-linejoin:round;stroke-dasharray:none"
       id="path2"
       cx="10"
       cy="10"
       r="2" />
    <path
       d="M 8.8743937,4.1067261 A 2,2 0 0 1 8.0000285,6.5360352 2,2 0 0 1 5.4590983,6.0786987 6,6 0 0 0 4.3335856,8.0279338 a 2,2 0 0 1 1.666565,1.9719726 2,2 0 0 1 -1.666565,1.9719726 6,6 0 0 0 1.1255127,1.949752 2,2 0 0 1 2.5409302,-0.457337 2,2 0 0 1 0.8743652,2.42931 6,6 0 0 0 1.1255127,0.106453 6,6 0 0 0 1.1255126,-0.106453 2,2 0 0 1 0.874365,-2.42931 2,2 0 0 1 2.541447,0.457337 6,6 0 0 0 1.120345,-1.954403 A 2,2 0 0 1 14.000179,9.9999064 2,2 0 0 1 15.661576,8.0325846 6,6 0 0 0 14.541231,6.0786987 2,2 0 0 1 11.999784,6.5360352 2,2 0 0 1 11.125419,4.1067261 6,6 0 0 0 9.9999064,3.9997559 6,6 0 0 0 8.8743937,4.1067261 Z"
       style="fill:none;stroke:#000000;stroke-width:0.5;stroke-linecap:round;stroke-linejoin:round;stroke-dasharray:none"
       id="path10" />
  </g>
</svg>
